<svg width="24" height="25" viewBox="0 0 24 25" fill="none" xmlns="http://www.w3.org/2000/svg">
<path d="M18.7912 11.3152C19.3412 11.3152 19.7912 11.7652 19.7912 12.3152C19.7912 12.8652 19.3412 13.3152 18.7912 13.3152H7.62125L12.4912 18.2052C12.8812 18.5952 12.8812 19.2252 12.4912 19.6152C12.3044 19.8024 12.0508 19.9077 11.7862 19.9077C11.5217 19.9077 11.2681 19.8024 11.0812 19.6152L4.50125 13.0152C4.11125 12.6252 4.11125 11.9952 4.50125 11.6052L11.0912 5.01519C11.4812 4.62519 12.1112 4.62519 12.5012 5.01519C12.8912 5.40519 12.8912 6.04519 12.5012 6.43519L7.62125 11.3152H18.7912Z" fill="#37474F"/>
</svg>
