<?xml version="1.0" encoding="UTF-8"?>
<svg width="187px" height="88px" viewBox="0 0 187 88" version="1.1" xmlns="http://www.w3.org/2000/svg" xmlns:xlink="http://www.w3.org/1999/xlink">
    <title>Logo/Iallo</title>
    <g id="Logo/Iallo" stroke="none" stroke-width="1" fill="none" fill-rule="evenodd">
        <g id="Logo/Symbol" transform="translate(4.000000, 2.000000)" fill-rule="nonzero">
            <g id="Logo-Symbol">
                <path d="M66.6292796,65.7807652 L66.3045224,66.0455478 C63.5928551,68.2328348 60.7935143,70.0103478 57.9390122,71.361287 L57.9390122,71.361287 C65.1961837,75.0269739 72.5092469,77.5385739 79.9012163,77.5385739 L79.9012163,77.5385739 C81.7602592,77.5385739 83.6868837,77.4034435 85.6810898,77.0999478 L85.6810898,77.0999478 L85.5324102,77.1218609 C85.3088429,77.0086435 85.0852755,76.8946957 84.8613429,76.7796522 L84.8613429,76.7796522 L84.8540367,76.7778261 L84.2205959,76.4505913 C78.9426531,73.7016 73.7231592,70.4266957 68.5321592,66.9958435 L68.5321592,66.9958435 L67.2868306,66.1697217 L66.664349,65.7548348 L66.6292796,65.7807652 Z" id="Clip-2" fill="#48CFFF"></path>
                <path d="M58.7580286,13.0382609 C61.4430286,14.3910261 64.0757898,16.122887 66.6292796,18.2192348 L66.6292796,18.2192348 L66.6628878,18.2440696 L67.2532224,17.8521913 L68.5022041,17.0257043 L69.7522816,16.2046957 C74.5465592,13.0674783 79.3664082,10.0668522 84.2366694,7.52968696 L84.2366694,7.52968696 C82.7527959,7.36570435 81.3076449,7.26928696 79.9012163,7.26928696 L79.9012163,7.26928696 C72.7868796,7.26928696 65.7463347,9.59535652 58.7580286,13.0382609 L58.7580286,13.0382609 Z" id="path-1" fill="#48CFFF"></path>
                <path d="M134.09438,9.49784348 C134.521057,9.86342609 134.943716,10.2352174 135.361627,10.6132174 L135.361627,10.6132174 L136.010045,11.2063304 L136.33188,11.5065391 L136.342108,11.5039826 L136.845865,11.9809565 C139.186747,14.2186435 141.408539,16.6257913 143.590878,19.0690957 L143.590878,19.0690957 L144.258292,19.8177913 L147.586961,23.5806261 L148.931653,25.0853217 L149.606008,25.8310957 L150.621924,26.9384348 L151.302855,27.6681391 L151.644782,28.0300696 L152.330827,28.7477217 L153.021255,29.4558783 L153.368661,29.806487 L154.066396,30.4993043 L154.76961,31.1808 L154.986237,31.3860522 C160.107829,36.2416174 165.720027,40.1052522 172.716369,41.4613043 L172.716369,41.4613043 L173.224145,41.5548 L173.494837,41.6030087 C173.674933,41.6329565 173.854663,41.6603478 174.032202,41.6855478 L174.032202,41.6855478 L174.812861,41.7914609 L174.909302,41.8027826 L175.10328,41.8217739 L175.437169,41.8495304 L175.942388,41.885687 L176.657657,41.9302435 L176.893645,41.9433913 L177.554849,41.9758957 L177.921251,41.9894087 L178.193769,41.9945217 L178.050935,41.9959826 L177.667363,42.0076696 L177.314843,42.0237391 L176.657657,42.0580696 L175.985494,42.0997043 L175.610324,42.1263652 L175.179263,42.1599652 L174.931951,42.1829739 L174.812861,42.1972174 L174.032202,42.3027652 L173.764433,42.3425739 C173.585067,42.3696 173.404241,42.399913 173.224145,42.4338783 L173.224145,42.4338783 L173.200035,42.4368 L172.745594,42.5215304 L172.468692,42.576313 C166.023961,43.8859826 160.755882,47.3281565 155.955394,51.7009043 L155.955394,51.7009043 L155.545155,52.0781739 C155.476843,52.1413565 155.408896,52.2045391 155.340949,52.2684522 L155.340949,52.2684522 L154.933633,52.6519304 L154.528873,53.0394261 C154.461292,53.1048 154.394076,53.1698087 154.326859,53.2351826 L154.326859,53.2351826 L153.924657,53.6285217 L153.524282,54.0258783 L153.125733,54.426887 L152.423614,55.1449043 L151.72588,55.8724174 L151.032163,56.6090609 L150.341735,57.3533739 L149.654229,58.1046261 L148.626988,59.241913 L147.602669,60.3897913 L146.287933,61.8572348 L144.873467,63.4273043 L143.396169,65.0572696 L142.329476,66.2252348 L141.335478,67.305913 L140.41381,68.2989391 L139.335427,69.4475478 L138.68299,70.1334261 L138.179963,70.655687 L137.713833,71.1333913 L137.2035,71.6479826 L136.968243,71.8813565 L136.605859,72.2345217 L136.342108,72.4843304 L135.686749,73.091687 L135.035043,73.6807826 L134.706633,73.9711304 L134.09438,74.5017913 C135.107739,74.5156696 136.121098,74.4758609 137.134092,74.3816348 L137.134092,74.3816348 C144.3814,73.7103652 151.752912,69.0710087 157.175516,60.600887 L157.175516,60.600887 C157.254422,60.4770783 157.332598,60.3536348 157.410408,60.2309217 L157.410408,60.2309217 L160.034037,56.0886261 L160.441718,55.4509565 L160.841729,54.8278957 L161.236259,54.2198087 L161.624214,53.6274261 L162.007055,53.0489217 C162.070618,52.9539652 162.133816,52.8597391 162.196649,52.7658783 L162.196649,52.7658783 L162.572549,52.2103826 L162.848355,51.8086435 L163.122335,51.4153043 L163.394853,51.0303652 C163.439786,50.9664522 163.485449,50.9032696 163.530382,50.8404522 L163.530382,50.8404522 L163.800708,50.4675652 C163.845641,50.4058435 163.890573,50.3448522 163.935506,50.2842261 L163.935506,50.2842261 L164.204371,49.9230261 L164.472506,49.5705913 C164.651141,49.3379478 164.82941,49.1111478 165.00768,48.8898261 L165.00768,48.8898261 L165.275084,48.5614957 C165.631988,48.128713 165.989622,47.7178435 166.349814,47.328887 L166.349814,47.328887 L166.621237,47.0407304 C169.791729,43.7289391 173.253369,42.0642783 178.680357,42.0018261 L178.680357,42.0018261 L179,42 C172.010233,42 168.242831,39.417913 164.267935,34.1613391 L164.267935,34.1613391 L163.996878,33.7990435 C163.95158,33.7380522 163.905916,33.6763304 163.860618,33.6146087 L163.860618,33.6146087 L163.587735,33.2395304 L163.31412,32.8564174 C163.268092,32.7914087 163.222429,32.7267652 163.1764,32.6613913 L163.1764,32.6613913 L162.899863,32.2654957 L162.621865,31.8615652 L162.242678,31.3024174 L162.051257,31.0168174 L161.665129,30.4346609 L161.46969,30.1381043 L161.075524,29.5333043 L160.674784,28.9128 L160.267467,28.2773217 L159.642429,27.2956174 L158.5582,25.5820174 L157.175516,23.399113 C151.752912,14.9289913 144.3814,10.2896348 137.134092,9.61836522 L137.134092,9.61836522 C136.246763,9.5361913 135.358704,9.49528696 134.471376,9.49528696 L134.471376,9.49528696 C134.34571,9.49528696 134.220045,9.49638261 134.09438,9.49784348 L134.09438,9.49784348 Z" id="path-3" fill="#FA579A"></path>
                <path d="M0.237083673,41.9989043 L0,42 L0.319642857,42.0018261 C5.80434898,42.0650087 9.28169796,43.7647304 12.4803184,47.1477391 L12.4803184,47.1477391 L12.7502796,47.4377217 C13.1988755,47.9274783 13.6427224,48.4504696 14.0865694,49.0074261 L14.0865694,49.0074261 L14.3532429,49.3452522 C14.3978102,49.4025913 14.4420122,49.4595652 14.4865796,49.5176348 L14.4865796,49.5176348 L14.7536184,49.867513 L15.0213878,50.2257913 L15.2902531,50.5924696 L15.559849,50.9668174 L15.8312714,51.3492 L16.1037898,51.7396174 L16.3781347,52.1380696 L16.7573224,52.6975826 L16.9487429,52.9828174 L17.3348714,53.5649739 L17.5299449,53.8618957 L17.9244755,54.4666957 L18.324851,55.0868348 L18.7321673,55.7226783 L19.3572061,56.7047478 L20.4418,58.4179826 L21.8244837,60.600887 C27.2470878,69.0710087 34.6186,73.7103652 41.8655429,74.3816348 L41.8655429,74.3816348 C50.3417408,75.1672174 58.8522776,72.1651304 66.6292796,65.7807652 L66.6292796,65.7807652 L66.664349,65.7548348 L64.5028327,64.3045565 L64.1901306,64.0960174 C60.5224571,61.6629391 56.0587816,59.2101391 51.1644102,56.8683652 L51.1644102,56.8683652 L50.3209184,56.4684522 L49.4697551,56.0703652 L48.6109204,55.6748348 C48.3234245,55.5433565 48.0348327,55.4126087 47.7447796,55.2822261 L47.7447796,55.2822261 L46.3701327,54.670487 L45.5701122,54.3209739 C42.3601673,52.9276696 39.0355163,51.596087 35.6849286,50.3583652 L35.6849286,50.3583652 L34.2313755,49.8273391 L33.8521878,49.691113 L33.0930816,49.4208522 L32.3332449,49.1538783 C32.206849,49.1100522 32.0804531,49.0658609 31.9536918,49.0220348 L31.9536918,49.0220348 L31.194951,48.7605391 C31.0681898,48.7170783 30.9417939,48.6739826 30.815398,48.630887 L30.815398,48.630887 L30.0570224,48.3752348 L29.2993776,48.1232348 L28.5428286,47.874887 L27.7873755,47.6305565 C27.6617102,47.5900174 27.5360449,47.5494783 27.4103796,47.5096696 L27.4103796,47.5096696 L26.6571184,47.2711826 L25.9056837,47.0370783 L25.1564408,46.8069913 L24.4097551,46.5816522 C24.2851857,46.5440348 24.1609816,46.507513 24.0367776,46.4702609 L24.0367776,46.4702609 L23.2933796,46.2514957 C23.1699061,46.2153391 23.0464327,46.1791826 22.9229592,46.1433913 L22.9229592,46.1433913 L22.1839449,45.9312 L21.4478531,45.7233913 L20.7154143,45.5206957 L19.9866286,45.3223826 C19.8653469,45.2898783 19.7444306,45.2573739 19.623149,45.2252348 L19.623149,45.2252348 L18.9002082,45.0345913 C18.7800224,45.0028174 18.6598367,44.9721391 18.5403816,44.9407304 L18.5403816,44.9407304 L17.8232857,44.7577565 L17.1109388,44.5795304 C16.9925796,44.550313 16.8745857,44.5210957 16.7562265,44.4926087 L16.7562265,44.4926087 L16.0511857,44.321687 C15.9339224,44.2939304 15.8173898,44.2661739 15.7008571,44.2387826 L15.7008571,44.2387826 L15.0031224,44.0762609 C14.8873204,44.0496 14.7715184,44.0233043 14.6560816,43.9973739 L14.6560816,43.9973739 L13.966749,43.842887 L13.2832612,43.6942435 L12.6056184,43.5514435 C11.8180184,43.3881913 11.0439347,43.2362609 10.2833673,43.0967478 L10.2833673,43.0967478 L9.63531429,42.9802435 C6.19741837,42.3743478 3.06637959,42.0281217 0.395991837,41.996713 L0.395991837,41.996713 L0.237083673,41.9989043 Z" id="path-5" fill="#FA579A"></path>
                <path d="M41.8655429,9.61836522 C34.6186,10.2896348 27.2470878,14.9289913 21.8244837,23.399113 L21.8244837,23.399113 L21.3525082,24.1423304 L19.5701796,26.9603478 L18.7321673,28.2773217 L18.324851,28.9128 L17.9244755,29.5333043 L17.5299449,30.1381043 L17.3348714,30.4346609 L16.9487429,31.0168174 L16.7573224,31.3024174 L16.3781347,31.8615652 L16.1140184,32.2454087 L15.8517286,32.6215826 L15.5905347,32.9904522 L15.330802,33.3516522 L15.0721653,33.7055478 L14.8142592,34.0517739 L14.5570837,34.3906957 L14.3002735,34.7219478 C10.7082184,39.3094435 7.18447551,41.7041739 1.17738163,41.9744348 L1.17738163,41.9744348 C2.82637347,41.919287 4.63536939,41.7542087 6.57039592,41.4897913 L6.57039592,41.4897913 L7.18593673,41.4028696 C8.4246898,41.2231826 9.71312449,41.0044174 11.0421082,40.7494957 L11.0421082,40.7494957 L11.7095224,40.619113 C11.8213061,40.5968348 11.9334551,40.5745565 12.0459694,40.551913 L12.0459694,40.551913 L12.7236122,40.4124 C12.8372224,40.3886609 12.9508327,40.3645565 13.0644429,40.3408174 L13.0644429,40.3408174 L13.7512184,40.1929043 C14.2111388,40.0921043 14.6750776,39.9880174 15.1423041,39.879913 L15.1423041,39.879913 L15.846249,39.7152 C15.9638776,39.6870783 16.0818714,39.6593217 16.2002306,39.6312 L16.2002306,39.6312 L16.9114816,39.458087 C17.1496612,39.3996522 17.3882061,39.340487 17.6278469,39.2798609 L17.6278469,39.2798609 L18.3485959,39.096887 C18.4691469,39.0658435 18.5900633,39.0348 18.7109796,39.0033913 L18.7109796,39.0033913 L19.4383041,38.8127478 L20.1696469,38.6166261 L20.9050082,38.4157565 C21.027751,38.3817913 21.1508592,38.3478261 21.2739673,38.3134957 L21.2739673,38.3134957 L22.0144429,38.105687 C22.1382816,38.0702609 22.2621204,38.0352 22.3859592,37.9997739 L22.3859592,37.9997739 L23.1311837,37.7842957 L23.8793306,37.5648 L24.6304,37.3405565 L25.3832959,37.1119304 L26.1391143,36.879287 L26.8963939,36.6418957 L27.6555,36.400487 L28.4164327,36.1550609 L29.8670633,35.6769913 L30.739049,35.3833565 C31.902549,34.9881913 33.0675102,34.5806087 34.2313755,34.1609739 L34.2313755,34.1609739 L35.6849286,33.630313 L36.5916184,33.2928522 C37.4975776,32.9528348 38.4013449,32.6066087 39.3003633,32.2541739 L39.3003633,32.2541739 L40.7352857,31.6851652 L42.1610755,31.1062957 L42.6045571,30.923687 L43.4889633,30.555913 C43.635451,30.4938261 43.7823041,30.4321043 43.9287918,30.3703826 L43.9287918,30.3703826 L44.8055265,29.9971304 C45.6797041,29.6224174 46.5462102,29.2433217 47.4024878,28.8598435 L47.4024878,28.8598435 L48.2558429,28.4752696 C49.247649,28.0249565 50.2255735,27.5691652 51.1866939,27.1089913 L51.1866939,27.1089913 L52.0064408,26.7138261 L52.8177857,26.3164696 C53.3555163,26.0509565 53.8877673,25.7843478 54.4130776,25.5166435 L54.4130776,25.5166435 L55.1962939,25.1141739 C58.438751,23.4349043 61.4189184,21.719113 64.0100347,20.0117217 L64.0100347,20.0117217 L66.6628878,18.2437043 L66.6292796,18.2192348 C59.6632571,12.5002957 52.1083612,9.49565217 44.5169347,9.49565217 L44.5169347,9.49565217 C43.6332592,9.49565217 42.7492184,9.5361913 41.8655429,9.61836522 L41.8655429,9.61836522 Z" id="path-7" fill="#FA579A"></path>
                <path d="M112.37072,18.2192348 C106.174398,22.8582261 100.978649,24.2694261 94.772098,24.9045391 L94.772098,24.9045391 L94.2928163,24.951287 L93.809151,24.993287 L93.321102,25.0312696 L92.8283041,25.0656 L92.3311224,25.0962783 L91.8284612,25.1225739 L91.3206857,25.1459478 L90.8077959,25.1656696 L90.2890612,25.1828348 L89.7644816,25.196713 L89.5,25.2025565 L89.2355184,25.196713 L88.7109388,25.1828348 L88.1925694,25.1656696 L87.6793143,25.1459478 L87.1715388,25.1225739 L86.6692429,25.0962783 L86.1716959,25.0656 L85.678898,25.0312696 L85.190849,24.993287 L84.7071837,24.951287 L84.2275367,24.9045391 C78.1086592,24.2781913 72.9720898,22.9078957 66.8908388,18.4135304 L66.8908388,18.4135304 L66.6628878,18.2440696 L64.0100347,20.0117217 C60.7971673,22.1285217 56.9859286,24.2592 52.8177857,26.3164696 L52.8177857,26.3164696 L52.0064408,26.7138261 L51.1866939,27.1089913 C50.7746286,27.3062087 50.3600061,27.5026957 49.9420959,27.698087 L49.9420959,27.698087 L49.1026224,28.0877739 C48.9619796,28.1527826 48.8213367,28.2174261 48.6799633,28.2817043 L48.6799633,28.2817043 L47.8302612,28.6681043 C47.2611143,28.924487 46.687949,29.1790435 46.1107653,29.4321391 L46.1107653,29.4321391 L45.241702,29.8097739 C44.2254204,30.2484 43.197449,30.6811826 42.1610755,31.1062957 L42.1610755,31.1062957 L40.7352857,31.6851652 L39.3003633,32.2541739 C38.1014286,32.7238435 36.8948224,33.183287 35.6849286,33.630313 L35.6849286,33.630313 L34.2313755,34.1609739 C32.7770918,34.6854261 31.3198857,35.1916174 29.8670633,35.6769913 L29.8670633,35.6769913 L28.4164327,36.1550609 C28.2893061,36.1963304 28.1621796,36.2372348 28.0354184,36.2785043 L28.0354184,36.2785043 L27.2752163,36.5221043 L26.5164755,36.7613217 L25.7591959,36.9965217 C25.6331653,37.0352348 25.5075,37.0739478 25.3818347,37.1126609 L25.3818347,37.1126609 L24.6278429,37.341287 L23.8767735,37.5655304 L23.1278959,37.7853913 C23.0033265,37.8215478 22.8791224,37.8577043 22.7549184,37.8934957 L22.7549184,37.8934957 L22.0104245,38.1064174 L21.269949,38.3145913 L20.5320306,38.5180174 C20.4092878,38.5516174 20.2872755,38.5848522 20.164898,38.618087 L20.164898,38.618087 L19.4328245,38.8138435 L18.7051347,39.0048522 L17.9818286,39.1907478 C17.7410918,39.2517391 17.501451,39.3123652 17.2625408,39.3715304 L17.2625408,39.3715304 L16.5483673,39.5468348 C16.3109184,39.6045391 16.0745653,39.6611478 15.8389429,39.7170261 L15.8389429,39.7170261 L15.134998,39.8817391 C15.0177347,39.9087652 14.901202,39.9354261 14.7846694,39.962087 L14.7846694,39.962087 L14.0891265,40.1184 L13.3990633,40.2688696 L12.7148449,40.4142261 L12.0368367,40.5533739 C11.9243224,40.5763826 11.8121735,40.5986609 11.7000245,40.6209391 L11.7000245,40.6209391 L11.0318796,40.7513217 L10.3710408,40.8758609 C10.0422653,40.936487 9.71568163,40.9949217 9.39202041,41.0511652 L9.39202041,41.0511652 L8.74908163,41.16 L8.11344898,41.2626261 C7.37626122,41.3791304 6.65551224,41.4817565 5.95229796,41.5716 L5.95229796,41.5716 L5.35392653,41.6450087 C3.86859184,41.820313 2.46691224,41.9320696 1.16496122,41.9748 L1.16496122,41.9748 L0.912534694,41.9846609 C0.743763265,41.9905043 0.572434694,41.9945217 0.399279592,41.996713 L0.399279592,41.996713 C2.40188776,42.0204522 4.66386327,42.2213217 7.11981633,42.5759478 L7.11981633,42.5759478 L7.73791429,42.6676174 L8.36368367,42.7658609 C8.67857755,42.8166261 8.99639388,42.8692174 9.31676735,42.9247304 L9.31676735,42.9247304 L9.96153265,43.0379478 C10.2855592,43.0963826 10.6121429,43.1570087 10.9412837,43.2198261 L10.9412837,43.2198261 L11.6032184,43.3483826 C12.0467,43.4360348 12.4945653,43.5273391 12.9460837,43.6226609 L12.9460837,43.6226609 L13.626649,43.7687478 L14.3134245,43.920313 C14.4284959,43.9458783 14.5435673,43.9718087 14.6586388,43.9977391 L14.6586388,43.9977391 L15.353451,44.1577043 C15.4699837,44.1843652 15.586151,44.2117565 15.703049,44.239513 L15.703049,44.239513 L16.4055327,44.4071478 C16.5227959,44.4352696 16.6407898,44.4637565 16.7587837,44.4929739 L16.7587837,44.4929739 L17.4689388,44.6682783 L18.1831122,44.8490609 C18.3025673,44.8797391 18.4223878,44.9104174 18.5422082,44.9414609 L18.5422082,44.9414609 L19.2633224,45.129913 L19.9880898,45.323113 L20.7172408,45.5214261 L21.4496796,45.7241217 C21.5720571,45.758087 21.6944347,45.7927826 21.8171776,45.827113 L21.8171776,45.827113 L22.5547306,46.0374783 L23.2952061,46.2514957 C23.4186796,46.2876522 23.5421531,46.3241739 23.6663571,46.3606957 L23.6663571,46.3606957 L24.410851,46.5820174 L25.157902,46.8073565 C25.4070408,46.8833217 25.6569102,46.9603826 25.9067796,47.0374435 L25.9067796,47.0374435 L26.6582143,47.2715478 L27.4114755,47.5100348 L28.1658327,47.7525391 L28.921651,47.9986957 L29.6789306,48.2488696 L30.4365755,48.5026957 L31.1953163,48.7605391 L31.9540571,49.0220348 L32.7131633,49.2871826 L33.4726347,49.5556174 L34.2313755,49.8273391 L35.6849286,50.3583652 C39.3149755,51.6994435 42.9136061,53.1504522 46.3701327,54.670487 L46.3701327,54.670487 L47.7447796,55.2822261 C48.6142082,55.6737391 49.4737735,56.0692696 50.3209184,56.4684522 L50.3209184,56.4684522 L51.1644102,56.8683652 L51.9991347,57.2712 C56.7050082,59.5574609 60.9842041,61.9423304 64.5028327,64.3045565 L64.5028327,64.3045565 L66.664349,65.7544696 C72.8449633,61.1352 78.0330408,59.7294783 84.2275367,59.0954609 L84.2275367,59.0954609 L84.7071837,59.0490783 L85.190849,59.006713 L85.678898,58.9687304 L86.1716959,58.9344 L86.6692429,58.904087 L87.1715388,58.8770609 L87.6793143,58.8540522 L88.1925694,58.8339652 L88.7109388,58.8175304 L89.2355184,58.803287 L89.5,58.7974435 L89.7644816,58.803287 L90.2890612,58.8175304 L90.8077959,58.8339652 L91.3206857,58.8540522 L91.8284612,58.8770609 L92.3311224,58.904087 L92.8283041,58.9344 L93.321102,58.9687304 L93.809151,59.006713 L94.2928163,59.0490783 L94.772098,59.0954609 C100.978649,59.7305739 106.174398,61.1417739 112.37072,65.7807652 L112.37072,65.7807652 C113.083798,66.3662087 113.80272,66.9231652 114.527122,67.4509043 L114.527122,67.4509043 L115.297918,67.1039478 C115.778661,66.8862783 116.259769,66.6667826 116.741973,66.4450957 L116.741973,66.4450957 L117.440439,66.1244348 C120.236857,64.8370435 123.053733,63.5003478 125.873531,62.1472174 L125.873531,62.1472174 L127.283612,61.4690087 L135.768578,57.3723652 L139.313508,55.6748348 L141.427169,54.6737739 L143.528776,53.689513 L144.922053,53.0441739 L146.308755,52.4086957 L147.687786,51.7841739 L149.401071,51.0201391 L151.101206,50.2761913 C151.552724,50.0808 152.002782,49.8872348 152.451378,49.6965913 L152.451378,49.6965913 L153.79132,49.1326957 L154.813447,48.7072174 L155.829729,48.2875826 L156.839069,47.8734261 L157.8422,47.4665739 L158.837659,47.0673913 C162.310624,45.6854087 165.650618,44.464487 168.811247,43.582487 L168.811247,43.582487 C170.074476,43.1413043 171.383733,42.7837565 172.745594,42.5215304 L172.745594,42.5215304 L173.200035,42.4368 L173.224145,42.4338783 C173.494471,42.3827478 173.765894,42.3407478 174.032202,42.3027652 L174.032202,42.3027652 L174.812861,42.1972174 L174.967751,42.1793217 L175.179263,42.1599652 L175.630051,42.1245391 L176.273355,42.0814435 L176.893645,42.0449217 L177.452198,42.0171652 L177.837231,42.0014609 L178.070661,41.9952522 L178.193769,41.9945217 C178.172947,41.9945217 178.151029,41.9941565 178.126918,41.9937913 L178.126918,41.9937913 L177.873761,41.9879478 L177.554849,41.9758957 L177.059494,41.9521565 L176.521763,41.9222087 L175.731606,41.8710783 L175.277531,41.8367478 L175.005743,41.8130087 L174.867292,41.7980348 L174.032202,41.6855478 C173.765894,41.6479304 173.494471,41.6055652 173.224145,41.5548 L173.224145,41.5548 L172.716369,41.4613043 C172.01352,41.3250783 171.325284,41.1636522 170.650198,40.9788522 L170.650198,40.9788522 C166.062684,40.0749391 161.05872,38.6319652 155.791737,36.5104174 L155.791737,36.5104174 L154.467502,35.9706261 L153.133404,35.4144 C152.463798,35.1324522 151.790539,34.8446609 151.113627,34.5513913 L151.113627,34.5513913 L149.755418,33.957913 L148.388443,33.3509217 L146.323002,32.4181565 L144.937396,31.782313 L143.544849,31.1369739 L142.145727,30.4825043 L140.741124,29.82 L138.625271,28.8134609 L135.077418,27.1089913 L130.10268,24.7033043 L126.578571,23.0021217 C123.288624,21.4185391 120.000139,19.8550435 116.743069,18.3627652 L116.743069,18.3627652 L115.299014,17.7079304 L113.844365,17.0563826 C113.350471,17.4307304 112.859135,17.8182261 112.37072,18.2192348 L112.37072,18.2192348 Z" id="Clip-17" fill="#220A8E"></path>
                <path d="M89.2355184,58.4380696 L88.7109388,58.4519478 L88.1925694,58.469113 L87.6793143,58.4888348 L87.1715388,58.5118435 L86.6692429,58.5388696 L86.1716959,58.5691826 L85.678898,58.603513 L85.190849,58.6414957 L84.7071837,58.6838609 L84.2275367,58.7302435 L83.9659776,58.758 C77.8858224,59.4146609 72.7580204,61.2002087 66.664349,65.7544696 L66.664349,65.7544696 C72.678749,69.7714957 78.7263918,73.6387826 84.8540367,76.7778261 L84.8540367,76.7778261 L84.8613429,76.7796522 C85.0852755,76.8946957 85.3092082,77.0090087 85.5331408,77.1222261 L85.5331408,77.1222261 L86.2845755,77.007913 C91.2742918,76.2175826 96.6950694,74.6131826 102.364255,72.5025913 L102.364255,72.5025913 L103.238067,72.1738957 C104.406316,71.7305217 105.584429,71.2666957 106.770578,70.7849739 L106.770578,70.7849739 L107.66229,70.4201217 C107.810604,70.3584 107.959649,70.2970435 108.109059,70.2349565 L108.109059,70.2349565 L109.00479,69.8606087 C109.453386,69.6717913 109.903078,69.4807826 110.353865,69.2875826 L110.353865,69.2875826 L111.256171,68.8982609 L111.708786,68.7014087 L113.14042,68.0717739 L113.858612,67.7522087 L114.527122,67.4509043 C113.80272,66.9231652 113.083798,66.3662087 112.37072,65.7807652 L112.37072,65.7807652 C106.174398,61.1417739 100.978649,59.3653565 94.772098,58.7302435 L94.772098,58.7302435 L94.2928163,58.6838609 L93.809151,58.6414957 L93.321102,58.603513 L92.8283041,58.5691826 L92.3311224,58.5388696 L91.8284612,58.5118435 L91.3206857,58.4888348 L90.8077959,58.469113 L90.2890612,58.4519478 L89.7644816,58.4380696 L89.5,58.4322261 L89.2355184,58.4380696 Z" id="Path" fill="#2535EC"></path>
                <path d="M69.1272429,16.6144696 L67.8775306,17.4380348 C67.4614469,17.7137739 67.0453633,17.9898783 66.6292796,18.2663478 L66.6292796,18.2663478 L66.6632531,18.2444348 C72.844598,22.8644348 78.0323102,24.6357391 84.2275367,25.2697565 L84.2275367,25.2697565 L84.7071837,25.3165043 L85.190849,25.3585043 L85.678898,25.396487 L86.1716959,25.4308174 L86.6692429,25.4611304 L87.1715388,25.4877913 L87.6793143,25.5111652 L88.1925694,25.5312522 L88.7109388,25.5480522 L89.2355184,25.5619304 L89.5,25.5677739 L89.7644816,25.5619304 L90.2890612,25.5480522 L90.8077959,25.5312522 L91.3206857,25.5111652 L91.8284612,25.4877913 L92.3311224,25.4611304 L92.8283041,25.4308174 L93.321102,25.396487 L93.809151,25.3585043 L94.2928163,25.3165043 L94.772098,25.2697565 L95.0340224,25.242 C101.125502,24.5838783 106.261706,22.792487 112.37072,18.2192348 L112.37072,18.2192348 C112.859135,17.8182261 113.350471,17.4307304 113.844365,17.0563826 L113.844365,17.0563826 L112.424786,16.4296696 C111.709151,16.1159478 110.995343,15.8069739 110.283727,15.5027478 L110.283727,15.5027478 L108.864147,14.9019652 L107.366392,14.2807304 C106.055673,13.7434957 104.755549,13.2270783 103.467114,12.7351304 L103.467114,12.7351304 L102.609376,12.4108174 C96.6223735,10.1661913 90.9078898,8.47158261 85.6810898,7.70754783 L85.6810898,7.70754783 C85.195598,7.6418087 84.7137592,7.58227826 84.2366694,7.53005217 L84.2366694,7.53005217 C79.1545306,10.1771478 74.1275531,13.3293391 69.1272429,16.6144696 L69.1272429,16.6144696 Z" id="path-9" fill="#2535EC"></path>
                <path d="M113.858612,67.7522087 L113.14042,68.0717739 L111.708786,68.7014087 L111.256171,68.8982609 C111.105665,68.9636348 110.955159,69.0286435 110.805018,69.0936522 L110.805018,69.0936522 L109.903443,69.4800522 C109.753667,69.5439652 109.603527,69.6078783 109.453751,69.6710609 L109.453751,69.6710609 L108.556559,70.0486957 C108.257739,70.1736 107.959649,70.2970435 107.66229,70.4201217 L107.66229,70.4201217 L106.770578,70.7849739 C105.584429,71.2666957 104.406316,71.7305217 103.238067,72.1738957 L103.238067,72.1738957 L102.364255,72.5025913 C96.6950694,74.6131826 91.2742918,76.2175826 86.2845755,77.007913 L86.2845755,77.007913 L85.6810898,77.0999478 L85.5324102,77.1218609 C93.6769102,81.2334783 101.901778,84 110.209204,84 L110.209204,84 C119.549716,84 126.706794,80.4993913 132.875353,75.5167304 L132.875353,75.5167304 L133.267692,75.1964348 C133.333082,75.143113 133.398106,75.0890609 133.463131,75.0353739 L133.463131,75.0353739 L133.851451,74.7092348 L134.095476,74.5017913 C127.411469,74.4115826 120.762898,71.9949391 114.527122,67.4509043 L114.527122,67.4509043 L113.858612,67.7522087 Z" id="path-11" fill="#8442EC"></path>
                <path d="M84.8748592,7.21377391 L84.8551327,7.21048696 L84.2363041,7.52932174 C84.7137592,7.58227826 85.195598,7.6418087 85.6810898,7.70754783 L85.6810898,7.70754783 C90.9078898,8.47158261 96.6223735,10.1661913 102.609376,12.4108174 L102.609376,12.4108174 L103.467114,12.7351304 C104.469149,13.1178783 105.47849,13.5152348 106.494041,13.9257391 L106.494041,13.9257391 L107.366392,14.2807304 L108.864147,14.9019652 L110.283727,15.5027478 L110.996073,15.8084348 C111.471337,16.0133217 111.947696,16.2207652 112.424786,16.4296696 L112.424786,16.4296696 L113.844365,17.0563826 L114.102271,16.8628174 C120.460059,12.1164522 127.258406,9.5906087 134.094745,9.4982087 L134.094745,9.4982087 C133.856565,9.29441739 133.616924,9.09281739 133.375822,8.8934087 L133.375822,8.8934087 L132.69891,8.34266087 C132.567035,8.23711304 132.434794,8.13229565 132.302188,8.02784348 L132.302188,8.02784348 L131.902543,7.71777391 C131.835692,7.66627826 131.768841,7.61514783 131.70199,7.56401739 L131.70199,7.56401739 L131.297961,7.26052174 C131.027635,7.05928696 130.755482,6.86133913 130.481137,6.66667826 L130.481137,6.66667826 L130.068341,6.37669565 C129.722761,6.13711304 129.373894,5.90227826 129.021739,5.67328696 L129.021739,5.67328696 L128.597253,5.40083478 C123.413194,2.11753043 117.470029,0 110.206282,0 L110.206282,0 C101.67821,0 93.2341592,2.91772174 84.8748592,7.21377391 L84.8748592,7.21377391 Z" id="path-13" fill="#8442EC"></path>
                <path d="M168.358633,43.7106783 C165.635276,44.4940696 162.781139,45.5199652 159.826178,46.6769739 L159.826178,46.6769739 L158.837659,47.0673913 C158.507057,47.1988696 158.175359,47.3321739 157.8422,47.4665739 L157.8422,47.4665739 L156.839069,47.8734261 L155.829729,48.2875826 L154.813447,48.7072174 L153.79132,49.1326957 L152.451378,49.6965913 L151.777388,49.9847478 L151.101206,50.2761913 L149.401071,51.0201391 L147.687786,51.7841739 L146.308755,52.4086957 L144.922053,53.0441739 L143.528776,53.689513 L141.427169,54.6737739 L139.313508,55.6748348 L135.768578,57.3723652 L127.283612,61.4690087 L125.873531,62.1472174 L124.463814,62.8221391 C122.115627,63.9444522 119.770727,65.0514261 117.440439,66.1244348 L117.440439,66.1244348 L116.019763,66.7759826 L115.297918,67.1039478 L114.527488,67.4512696 C120.762898,71.9949391 127.411104,74.4115826 134.09438,74.5017913 L134.09438,74.5017913 L134.706633,73.9711304 L135.035043,73.6807826 L135.686749,73.091687 L136.342108,72.4843304 L136.471061,72.3630783 L136.675267,72.1673217 L137.123863,71.7276 L137.625063,71.2236 L138.083888,70.7550261 L138.68299,70.1334261 L139.335427,69.4475478 L140.41381,68.2989391 L141.335478,67.305913 L142.477424,66.0638087 L144.038012,64.3505739 L145.392933,62.8517217 L147.602669,60.3897913 L148.626988,59.241913 L149.654229,58.1046261 L150.341735,57.3533739 L151.032163,56.6090609 L151.72588,55.8724174 L152.423614,55.1449043 L153.125733,54.426887 C153.204639,54.3469043 153.283545,54.267287 153.362816,54.1876696 L153.362816,54.1876696 L153.839176,53.712887 C158.296276,49.3065391 163.082516,45.5831478 168.811247,43.582487 L168.811247,43.582487 L168.358633,43.7106783 Z" id="path-15" fill="#81168E"></path>
                <path d="M0.388685714,41.9974435 C0.260097959,41.9989043 0.130414286,42 0,42 L0,42 L0.319642857,42.0018261 C1.58287143,42.0164348 2.73979592,42.1176 3.81050816,42.3064174 L3.81050816,42.3064174 C8.68880612,43.0039826 13.5966939,44.9677565 18.5356327,47.4844696 L18.5356327,47.4844696 L19.2092571,47.8310609 C19.3214061,47.8891304 19.4339204,47.9479304 19.5464347,48.0067304 L19.5464347,48.0067304 L20.2207898,48.3628174 L20.8955102,48.7247478 L21.5702306,49.0921565 L22.2456816,49.4646783 C22.3581959,49.5271304 22.4707102,49.5899478 22.5835898,49.6527652 L22.5835898,49.6527652 L23.2594061,50.0318609 L23.9359531,50.4153391 L24.9942449,51.0245217 C25.3471306,51.2301391 25.7003816,51.4375826 26.0536327,51.6472174 L26.0536327,51.6472174 L27.1374959,52.2965739 L28.2220898,52.9576174 L29.3081449,53.6299826 L30.3949306,54.3114783 L31.4828122,55.0017391 L32.5717898,55.6996696 L33.661498,56.4041739 L35.8445673,57.8281565 L39.674802,60.3456 L42.4189816,62.1421043 C46.6313265,64.8856174 50.8663204,67.5575478 55.1265204,69.8843478 L55.1265204,69.8843478 L55.6489082,70.1670261 C56.4120327,70.5768 57.1755224,70.9756174 57.9397429,71.361287 L57.9397429,71.361287 C60.9078551,69.9566609 63.8167878,68.0896696 66.6292796,65.7807652 L66.6292796,65.7807652 L66.664349,65.7544696 L64.5028327,64.3045565 L64.1901306,64.0960174 C61.0466714,62.0106261 57.3179918,59.9106261 53.2346,57.8785565 L53.2346,57.8785565 L52.4130265,57.4731652 C50.899198,56.7314087 49.3389755,55.9998783 47.7447796,55.2822261 L47.7447796,55.2822261 L46.3701327,54.670487 L45.5701122,54.3209739 C42.3601673,52.9276696 39.0355163,51.596087 35.6849286,50.3583652 L35.6849286,50.3583652 L34.2313755,49.8273391 L33.8514571,49.691113 L33.0985612,49.4230435 C32.9732612,49.378487 32.8475959,49.3346609 32.7219306,49.2904696 L32.7219306,49.2904696 L31.9694,49.027513 L31.2165041,48.7682087 C31.0912041,48.725113 30.9659041,48.6823826 30.8406041,48.6396522 L30.8406041,48.6396522 L30.0884388,48.3858261 L29.3373694,48.1356522 C29.2124347,48.0943826 29.0871347,48.0527478 28.9622,48.0118435 L28.9622,48.0118435 L28.2125918,47.767513 L27.4644449,47.5268348 L26.7173939,47.2901739 L25.9721694,47.0575304 L25.2287714,46.8292696 L24.4882959,46.6050261 L23.7492816,46.3851652 L23.0131898,46.169687 C22.8911776,46.1342609 22.7688,46.0988348 22.6464224,46.0637739 L22.6464224,46.0637739 L21.9147143,45.8548696 C21.7930673,45.8205391 21.6714204,45.7862087 21.5501388,45.7522435 L21.5501388,45.7522435 L20.8231796,45.5502783 C20.7026286,45.5170435 20.5817122,45.4841739 20.4615265,45.4513043 L20.4615265,45.4513043 L19.7396816,45.2562783 L19.0218551,45.0663652 L18.3084122,44.8812 L17.5989878,44.7011478 C17.4813592,44.6715652 17.3637306,44.6419826 17.246102,44.6131304 L17.246102,44.6131304 L16.5432531,44.4403826 L15.8455184,44.273113 L15.152898,44.1109565 L14.4653918,43.9542783 C14.3514163,43.9283478 14.2374408,43.9031478 14.1238306,43.8779478 L14.1238306,43.8779478 L13.4447265,43.7293043 C13.1064531,43.6562609 12.7703714,43.5854087 12.4364816,43.5163826 L12.4364816,43.5163826 L11.7723551,43.3819826 L11.1144388,43.2530609 L10.463098,43.1299826 C10.3549673,43.1098957 10.247202,43.0898087 10.139802,43.0704522 L10.139802,43.0704522 L9.4986898,42.9561391 C7.58594694,42.6223304 5.76927959,42.3692348 4.0753551,42.206713 L4.0753551,42.206713 L3.51534082,42.1559478 C2.4044449,42.0609913 1.34944082,42.0073043 0.358,41.9963478 L0.358,41.9963478 L0.388685714,41.9974435 Z" id="path-17" fill="#43279A"></path>
                <path d="M55.1265204,14.923513 C51.421951,16.9468174 47.7363776,19.230887 44.0683388,21.5964 L44.0683388,21.5964 L42.968402,22.3085739 L41.8695612,23.0240348 L39.674802,24.4626261 L38.0320204,25.5436696 L35.2988,27.3376174 L33.1164612,28.7568522 L31.4828122,29.8061217 L30.3949306,30.4967478 L29.3081449,31.1782435 L28.2220898,31.8502435 L27.1374959,32.5116522 L26.0536327,33.1606435 L24.9708653,33.7972174 C24.6179796,34.0021043 24.2654592,34.2051652 23.9136694,34.4053043 L23.9136694,34.4053043 L22.8572041,34.9998783 C16.3244347,38.628313 9.84609592,41.0241391 3.41999592,41.7578609 L3.41999592,41.7578609 C2.70984082,41.8666957 1.96242449,41.9390087 1.17190204,41.9744348 L1.17190204,41.9744348 C1.95329184,41.9485043 2.77011633,41.8981043 3.61981837,41.8239652 L3.61981837,41.8239652 L4.19042653,41.7710087 C6.20582041,41.5734261 8.39217755,41.2483826 10.7063918,40.8134087 L10.7063918,40.8134087 L11.3708837,40.6859478 L12.041951,40.5522783 C12.1544653,40.5296348 12.2673449,40.5066261 12.3798592,40.4832522 L12.3798592,40.4832522 L13.0607898,40.3411826 L13.7479306,40.1932696 L14.4409163,40.0398783 C14.5567184,40.0135826 14.6728857,39.987287 14.7894184,39.9609913 L14.7894184,39.9609913 L15.4904408,39.7988348 C15.7253327,39.7440522 15.9605898,39.6881739 16.1973082,39.6315652 L16.1973082,39.6315652 L16.9085592,39.4588174 C17.027649,39.4296 17.1471041,39.4003826 17.2661939,39.3704348 L17.2661939,39.3704348 L17.9851163,39.1900174 L18.7084224,39.0037565 C18.8293388,38.972713 18.9502551,38.9409391 19.0715367,38.9091652 L19.0715367,38.9091652 L19.8014184,38.7156 C19.9230653,38.6830957 20.0454429,38.6502261 20.1678204,38.6169913 L20.1678204,38.6169913 L20.9031816,38.4161217 C21.0259245,38.3821565 21.1486673,38.3481913 21.2721408,38.3138609 L21.2721408,38.3138609 L22.0129816,38.1060522 L22.7567449,37.8927652 L23.5037959,37.6758261 L24.2534041,37.4537739 L25.0055694,37.2273391 L25.7602918,36.9961565 C25.8859571,36.9574435 26.0123531,36.9183652 26.1383837,36.879287 L26.1383837,36.879287 L26.8960286,36.6418957 C27.0224245,36.602087 27.1488204,36.561913 27.2755816,36.5221043 L27.2755816,36.5221043 L28.0357837,36.2785043 L28.4164327,36.1550609 L29.8670633,35.6769913 L30.739049,35.3833565 C31.902549,34.9881913 33.0675102,34.5806087 34.2313755,34.1609739 L34.2313755,34.1609739 L35.6849286,33.630313 L36.5916184,33.2928522 C37.4975776,32.9528348 38.4013449,32.6066087 39.3003633,32.2541739 L39.3003633,32.2541739 L40.7352857,31.6851652 L42.1610755,31.1062957 L43.0473082,30.7403478 C43.1945265,30.6786261 43.3417449,30.6172696 43.4889633,30.555913 L43.4889633,30.555913 L44.3678898,30.184487 C51.8201347,27.0133043 58.7240551,23.4948 64.0100347,20.0117217 L64.0100347,20.0117217 L66.6628878,18.2440696 L66.6292796,18.2192348 C64.0754245,16.122887 61.4426633,14.3910261 58.757298,13.0382609 L58.757298,13.0382609 C57.5455776,13.6350261 56.3353184,14.2657565 55.1265204,14.923513 L55.1265204,14.923513 Z" id="path-19" fill="#43279A"></path>
                <path d="M113.844365,17.0563826 L115.299014,17.7079304 L116.743069,18.3627652 L117.966114,18.9255652 C120.822078,20.2461913 123.699959,21.616487 126.578571,23.0021217 L126.578571,23.0021217 L130.10268,24.7033043 L135.077418,27.1089913 L138.625271,28.8134609 L140.741124,29.82 L142.145727,30.4825043 L143.544849,31.1369739 L144.937396,31.782313 L146.323002,32.4181565 L148.388443,33.3509217 L149.755418,33.957913 L151.113627,34.5513913 L151.789078,34.8424696 C152.238769,35.0360348 152.687,35.2266783 153.133404,35.4144 L153.133404,35.4144 L154.467502,35.9706261 L155.791737,36.5104174 L156.269557,36.7014261 C161.361559,38.7185217 166.201865,40.1023304 170.650198,40.9788522 L170.650198,40.9788522 C164.503557,39.2933739 159.437492,35.6419304 154.76961,31.1808 L154.76961,31.1808 L154.066396,30.4993043 L153.368661,29.806487 L153.021255,29.4558783 L152.330827,28.7477217 L151.644782,28.0300696 L151.302855,27.6681391 L150.621924,26.9384348 L149.606008,25.8310957 L148.931653,25.0853217 L147.586961,23.5806261 L144.258292,19.8177913 L143.590878,19.0690957 C141.252918,16.4519478 138.868931,13.8749739 136.342108,11.5039826 L136.342108,11.5039826 L136.33188,11.5065391 L136.010045,11.2063304 L135.361627,10.6132174 C134.943716,10.2352174 134.521057,9.86342609 134.094014,9.4982087 L134.094014,9.4982087 C127.165618,9.59206957 120.275945,12.185113 113.844365,17.0563826 L113.844365,17.0563826 Z" id="path-21" fill="#81168E"></path>
            </g>
        </g>
        <path d="M62.9442399,34.8455497 C64.0205155,34.8455497 64.9231983,33.960733 64.9231983,32.9057592 C64.9231983,31.8507853 64.0205155,31 62.9442399,31 C61.9026828,31 61,31.8167539 61,32.9057592 C61,33.960733 61.8679642,34.8455497 62.9442399,34.8455497 Z M64.1593898,56.5235602 L64.1593898,38.4528796 L61.7985271,38.4528796 L61.7985271,56.5235602 L64.1593898,56.5235602 Z M70.026828,56.5235602 L73.9153077,48.4921466 L84.6780642,48.4921466 L88.6012625,56.5235602 L91.2745923,56.5235602 L79.6438716,32.0890052 L79.053656,32.0890052 L67.2493425,56.5235602 L70.026828,56.5235602 Z M83.56707,46.1099476 L75.0263019,46.1099476 L79.3314045,37.2617801 L83.56707,46.1099476 Z M96.7601262,56.5235602 L96.7601262,31.4764398 L94.3992635,31.4764398 L94.3992635,56.5235602 L96.7601262,56.5235602 Z M103.70384,56.5235602 L103.70384,31.4764398 L101.342977,31.4764398 L101.342977,56.5235602 L103.70384,56.5235602 Z M117.382956,57 C122.937927,57 127,52.6780105 127,47.539267 C127,42.3664921 122.903209,37.9764398 117.382956,37.9764398 C111.862704,37.9764398 107.765913,42.3664921 107.765913,47.539267 C107.765913,52.6780105 111.827985,57 117.382956,57 Z M117.382956,54.7539267 C113.216728,54.7539267 110.196213,51.5209424 110.196213,47.5732984 C110.196213,43.5575916 113.425039,40.2225131 117.382956,40.2225131 C121.306155,40.2225131 124.5697,43.5575916 124.5697,47.5732984 C124.5697,51.5209424 121.514466,54.7539267 117.382956,54.7539267 Z" id="iAllo" fill="#FFFFFF" fill-rule="nonzero"></path>
    </g>
</svg>